<svg xmlns="http://www.w3.org/2000/svg" viewBox="0 0 20 21" fill="currentColor" width="18" height="18" aria-hidden="true" tabindex="-1" class="icon_b407e05873 IoUpc" data-testid="icon"><path d="M7.276 10.42a1.133 1.133 0 1 1-2.267 0 1.133 1.133 0 0 1 2.267 0Zm3.857 0a1.133 1.133 0 1 1-2.267 0 1.133 1.133 0 0 1 2.267 0Zm2.723 1.134a1.133 1.133 0 1 0 0-2.267 1.133 1.133 0 0 0 0 2.267Z"/><path d="M19.107 10.42a9.107 9.107 0 1 1-18.214 0 9.107 9.107 0 0 1 18.214 0ZM10 17.92a7.5 7.5 0 1 0 0-15 7.5 7.5 0 0 0 0 15Z" fill-rule="evenodd" clip-rule="evenodd"/></svg>